<?xml version="1.0" standalone="no"?>
<!DOCTYPE svg PUBLIC "-//W3C//DTD SVG 20010904//EN"
 "http://www.w3.org/TR/2001/REC-SVG-20010904/DTD/svg10.dtd">
<svg version="1.0" xmlns="http://www.w3.org/2000/svg"
 width="300.000000pt" height="300.000000pt" viewBox="0 0 300.000000 300.000000"
 preserveAspectRatio="xMidYMid meet">
<metadata>
Created by potrace 1.11, written by Peter Selinger 2001-2013
</metadata>
<g transform="translate(0.000000,300.000000) scale(0.100000,-0.100000)"
fill="#000000" stroke="none">
<path d="M1314 2990 c-213 -23 -453 -115 -658 -253 -117 -78 -312 -274 -387
-387 -111 -167 -196 -367 -236 -554 -22 -103 -25 -464 -5 -571 37 -192 138
-428 254 -592 104 -147 298 -333 413 -397 17 -9 52 -30 79 -47 60 -37 238
-113 285 -123 45 -8 40 -5 -54 43 -258 130 -402 383 -422 741 l-6 106 268 33
c299 36 284 38 285 -39 0 -72 36 -227 63 -273 33 -55 80 -102 136 -135 44 -26
53 -27 176 -27 127 0 131 1 185 31 99 56 140 135 160 309 6 54 10 489 10 1097
l0 1007 -38 11 c-100 27 -350 36 -508 20z"/>
<path d="M2438 1738 c-4 -905 -4 -925 -26 -1038 -18 -93 -33 -137 -77 -226
-115 -234 -310 -381 -590 -444 -44 -10 -67 -19 -51 -19 16 -1 87 13 158 29
132 32 297 95 384 149 27 17 63 38 79 47 115 64 309 250 413 397 115 162 218
401 254 592 20 107 17 468 -5 571 -40 187 -125 388 -236 554 -55 82 -267 310
-289 310 -8 0 -12 -255 -14 -922z"/>
</g>
</svg>
